<?xml version="1.0" standalone="no"?>
<!DOCTYPE svg PUBLIC "-//W3C//DTD SVG 20010904//EN"
 "http://www.w3.org/TR/2001/REC-SVG-20010904/DTD/svg10.dtd">
<svg version="1.0" xmlns="http://www.w3.org/2000/svg"
 width="800.000000pt" height="800.000000pt" viewBox="0 0 800.000000 800.000000"
 preserveAspectRatio="xMidYMid meet">
<metadata>
Created by potrace 1.11, written by Peter Selinger 2001-2013
</metadata>
<g transform="translate(0.000000,800.000000) scale(0.100000,-0.100000)"
fill="#000000" stroke="none">
<path d="M3465 6840 c-284 -34 -674 -175 -944 -343 -62 -38 -72 -40 -151 -43
-47 -2 -143 -6 -215 -8 -422 -16 -876 -138 -1168 -312 -674 -404 -839 -1112
-452 -1931 84 -176 189 -348 333 -541 l54 -73 -25 -38 c-65 -99 -123 -241
-147 -365 -19 -96 -15 -269 9 -370 34 -144 97 -252 216 -372 114 -115 213
-186 359 -254 183 -86 347 -132 563 -155 125 -14 170 -15 288 -5 168 14 286
33 417 66 53 13 105 24 114 24 10 0 106 -44 213 -98 108 -55 231 -114 273
-133 43 -19 77 -38 75 -44 -2 -5 -35 -14 -73 -18 -134 -16 -126 -12 -167 -78
-42 -69 -45 -79 -88 -309 -16 -91 -34 -182 -38 -202 -7 -28 -5 -40 5 -49 22
-18 1831 -5 2034 15 214 21 344 42 501 82 37 9 135 15 290 18 796 15 1366 222
1719 623 118 135 203 299 258 503 24 88 26 111 26 305 0 193 -2 220 -27 330
-98 427 -333 854 -703 1275 -180 205 -565 570 -600 570 -9 0 -14 -12 -14 -36
0 -51 -48 -281 -67 -321 -43 -91 -182 -106 -259 -29 -45 45 -50 85 -25 198 54
242 54 437 0 476 -85 63 -314 212 -325 212 -9 0 -9 -10 2 -47 65 -211 64 -478
-2 -643 -31 -76 -136 -111 -216 -71 -87 43 -100 97 -65 276 35 182 -8 374
-123 540 -74 108 -236 224 -376 269 -62 20 -101 59 -118 117 -12 40 -18 47
-75 74 l-63 29 9 71 c15 131 7 272 -20 352 -78 229 -316 388 -672 449 -105 17
-438 27 -540 14z m460 -65 c358 -45 602 -180 701 -390 88 -184 62 -481 -54
-620 -60 -72 -235 -180 -346 -214 -93 -29 -141 -27 -183 5 -52 39 -57 64 -31
147 15 51 22 99 22 163 0 82 -2 96 -31 155 -18 35 -45 76 -60 91 -71 67 -235
130 -423 163 -100 18 -377 20 -466 4 -185 -32 -383 -137 -476 -251 -181 -221
-181 -531 0 -753 125 -154 321 -274 685 -422 373 -150 630 -284 709 -368 l23
-24 730 -4 c619 -3 750 -7 860 -21 243 -33 429 -94 562 -184 86 -59 113 -86
106 -110 -3 -12 2 -35 10 -51 10 -20 12 -33 5 -37 -6 -4 -8 -22 -3 -48 4 -22
6 -75 5 -118 0 -42 3 -79 8 -82 12 -7 9 -36 -7 -64 -6 -12 -12 -39 -11 -60 1
-72 -16 -181 -32 -199 -5 -7 -7 -17 -3 -22 7 -12 -29 -143 -49 -181 -8 -14
-17 -41 -21 -60 -4 -19 -13 -46 -20 -60 -6 -14 -19 -41 -27 -60 -9 -19 -25
-57 -37 -83 -12 -26 -26 -45 -31 -42 -6 3 -10 -2 -10 -13 0 -10 -9 -28 -20
-40 -11 -12 -20 -24 -20 -28 0 -4 -18 -31 -40 -60 -22 -29 -40 -58 -40 -64 0
-5 -7 -10 -15 -10 -9 0 -16 -10 -16 -22 -1 -19 -3 -17 -9 7 -4 17 -8 23 -9 15
-1 -15 -26 -86 -83 -235 -134 -350 -406 -659 -700 -794 -142 -65 -239 -85
-418 -85 -121 -1 -167 3 -212 17 -57 17 -119 59 -107 72 4 3 40 -4 80 -17 65
-20 93 -23 234 -22 178 1 264 17 398 77 277 122 534 408 666 740 131 330 170
748 96 1030 -56 214 -189 371 -376 446 -102 41 -182 54 -334 54 -178 0 -291
-28 -357 -91 -45 -41 -48 -54 -163 -682 -103 -557 -205 -1062 -237 -1170 -9
-34 -12 -36 -54 -35 -24 1 -47 4 -50 8 -4 4 -26 7 -49 7 -25 0 -48 6 -55 15
-9 11 -16 12 -30 3 -14 -9 -22 -9 -34 1 -9 7 -36 15 -61 17 -25 2 -55 9 -68
16 -12 7 -26 11 -31 10 -5 -2 -17 5 -27 14 -10 9 -22 13 -27 10 -5 -3 -20 2
-33 12 -32 23 -91 52 -104 52 -5 0 -32 11 -59 25 -27 14 -54 25 -61 25 -16 0
-16 33 0 149 18 125 18 141 4 141 -6 0 -42 -21 -80 -46 -156 -104 -495 -253
-734 -323 -289 -85 -427 -106 -700 -106 -192 0 -234 3 -324 23 -312 68 -560
192 -736 367 -167 166 -234 340 -222 579 8 178 59 324 169 483 130 188 387
365 601 412 45 11 90 22 99 26 25 10 85 -13 108 -42 24 -31 26 -91 6 -132 -21
-40 -129 -137 -211 -189 -38 -25 -71 -46 -73 -48 -15 -11 -44 -174 -45 -249
-2 -203 72 -351 244 -488 243 -195 602 -292 955 -258 376 37 688 175 868 387
120 141 167 278 167 484 1 107 -3 137 -25 205 -36 112 -88 196 -181 290 -143
145 -384 285 -730 425 -133 53 -336 151 -413 199 -168 103 -333 240 -405 336
-93 123 -147 285 -147 445 0 291 110 529 365 786 258 260 615 464 1010 579 93
27 264 62 330 68 104 9 312 6 420 -8z m960 -1336 c119 -22 211 -94 263 -207
22 -47 26 -71 26 -137 -1 -111 -29 -182 -103 -256 -77 -77 -145 -102 -261 -97
-144 6 -251 74 -309 198 -22 47 -26 69 -26 150 0 81 4 103 26 150 46 99 147
179 251 199 61 12 67 12 133 0z m-1700 -3794 c-60 -16 -153 -19 -139 -6 10 10
48 15 134 17 l55 2 -50 -13z"/>
</g>
</svg>
